<svg xmlns="http://www.w3.org/2000/svg" width="51.054" height="32.244" viewBox="0 0 51.054 32.244"><defs><style>.a{fill:#f39224;}</style></defs><path class="a" d="M467.025,511H424.033A4.035,4.035,0,0,0,420,515.032v24.183a4.035,4.035,0,0,0,4.031,4.03h42.993a4.035,4.035,0,0,0,4.031-4.03V515.032A4.036,4.036,0,0,0,467.025,511Zm0,2.687a1.351,1.351,0,0,1,.234.022L447.02,527.2a3.049,3.049,0,0,1-2.98,0L423.8,513.71a1.328,1.328,0,0,1,.234-.022h42.99Zm0,26.871H424.033a1.344,1.344,0,0,1-1.344-1.344V516.2l19.86,13.239a5.731,5.731,0,0,0,5.96,0l19.86-13.239v23.017A1.344,1.344,0,0,1,467.025,540.559Z" transform="translate(-420.002 -511.001)"/></svg>