<svg xmlns="http://www.w3.org/2000/svg" width="57.935" height="57.978" viewBox="0 0 57.935 57.978"><defs><style>.a{fill:#f39224;}</style></defs><path class="a" d="M546.358,1162.977a35.972,35.972,0,0,1-16.233-4.325,61.634,61.634,0,0,1-25.79-25.819,36.058,36.058,0,0,1-4.319-16.236c0-3.328,3.1-6.542,4.432-7.769,1.916-1.766,4.931-3.827,7.122-3.827,1.09,0,2.366.713,4.021,2.244a38.341,38.341,0,0,1,4.006,4.476c.841,1.078,5.018,6.583,5.018,9.224,0,2.165-2.45,3.672-5.041,5.264a28.876,28.876,0,0,0-2.786,1.853c-.8.641-.942.979-.965,1.055,2.751,6.859,11.16,15.268,18.016,18.016.061-.021.4-.154,1.052-.965a29.172,29.172,0,0,0,1.852-2.786c1.594-2.591,3.1-5.041,5.264-5.041,2.641,0,8.143,4.177,9.224,5.015a38.34,38.34,0,0,1,4.476,4.009c1.531,1.653,2.244,2.931,2.244,4.021,0,2.192-2.061,5.215-3.823,7.14-1.229,1.339-4.444,4.455-7.772,4.455Zm-34.8-55.077c-.78.015-2.867.966-5.14,3.058-2.159,1.989-3.5,4.148-3.5,5.638,0,19.506,23.955,43.482,43.441,43.482,1.487,0,3.647-1.348,5.635-3.517,2.1-2.284,3.047-4.383,3.061-5.162-.093-.551-1.617-2.693-5.789-5.905-3.586-2.76-6.493-4.241-7.241-4.258-.052.015-.377.139-1.035.974a31.273,31.273,0,0,0-1.777,2.684c-1.623,2.641-3.157,5.137-5.386,5.137a2.81,2.81,0,0,1-1.052-.206c-7.609-3.044-16.607-12.041-19.651-19.651-.365-.913-.423-2.345,1.374-3.974a25.086,25.086,0,0,1,3.56-2.467,29.49,29.49,0,0,0,2.684-1.777c.835-.658.96-.983.974-1.035-.02-.748-1.5-3.655-4.258-7.241-3.212-4.171-5.354-5.693-5.9-5.789Z" transform="translate(-500.015 -1105.001)"/></svg>