<svg xmlns="http://www.w3.org/2000/svg" width="42.147" height="57.016" viewBox="0 0 42.147 57.016"><defs><style>.a{fill:#f39224;}</style></defs><path class="a" d="M84.588,38.8A12.427,12.427,0,1,0,97.015,51.227,12.442,12.442,0,0,0,84.588,38.8Zm0,21.512a9.085,9.085,0,1,1,9.085-9.084A9.1,9.1,0,0,1,84.588,60.312Z" transform="translate(-63.514 -30.154)"/><path class="a" d="M54.435,0A21.1,21.1,0,0,0,33.362,21.073c0,6.7,5.62,16.685,8.97,22.04A95.608,95.608,0,0,0,49,52.554c3.365,4.117,4.57,4.461,5.434,4.461s2.015-.345,5.369-4.464a98.447,98.447,0,0,0,6.673-9.436c3.373-5.368,9.031-15.37,9.031-22.043A21.1,21.1,0,0,0,54.435,0Zm9.725,40.514c-4.322,7.016-8.29,11.757-9.745,12.967-1.462-1.173-5.366-5.8-9.749-12.945C39.607,32.287,36.7,25.193,36.7,21.073a17.731,17.731,0,1,1,35.461,0C72.166,25.17,69.248,32.255,64.161,40.514Z" transform="translate(-33.362)"/></svg>