<svg xmlns="http://www.w3.org/2000/svg" width="41.402" height="41.402" viewBox="0 0 41.402 41.402"><defs><style>.a{fill:#f39224;}</style></defs><path class="a" d="M35.322,6.08A20.677,20.677,0,1,0,6.08,35.322,20.677,20.677,0,1,0,35.322,6.08ZM20.7,38.976A18.275,18.275,0,1,1,38.976,20.7,18.3,18.3,0,0,1,20.7,38.976Z"/><path class="a" d="M76.768,61A15.768,15.768,0,1,0,92.537,76.768,15.786,15.786,0,0,0,76.768,61Zm0,29.111A13.342,13.342,0,1,1,90.111,76.768,13.358,13.358,0,0,1,76.768,90.111Z" transform="translate(-56.067 -56.067)"/><path class="a" d="M190.7,128.125a1.213,1.213,0,1,0,2.426,0,4.474,4.474,0,0,0-1.906-3.543,6.666,6.666,0,0,0-2.946-1.212v-1.31a1.213,1.213,0,0,0-2.426,0v1.31a6.665,6.665,0,0,0-2.946,1.212,4.246,4.246,0,0,0,0,7.087,6.666,6.666,0,0,0,2.946,1.212v4.8c-1.4-.341-2.426-1.248-2.426-2.281a1.213,1.213,0,0,0-2.426,0,4.474,4.474,0,0,0,1.906,3.543,6.666,6.666,0,0,0,2.946,1.212v1.322a1.213,1.213,0,0,0,2.426,0v-1.322a6.665,6.665,0,0,0,2.946-1.212,4.246,4.246,0,0,0,0-7.087,6.666,6.666,0,0,0-2.946-1.212v-4.8C189.675,126.185,190.7,127.092,190.7,128.125Zm-7.278,0c0-1.033,1.029-1.94,2.426-2.281v4.563C184.454,130.065,183.426,129.158,183.426,128.125ZM190.7,135.4c0,1.033-1.029,1.94-2.426,2.281v-4.563C189.675,133.463,190.7,134.37,190.7,135.4Z" transform="translate(-166.364 -111.075)"/></svg>