<svg xmlns="http://www.w3.org/2000/svg" width="49.768" height="47.773" viewBox="0 0 49.768 47.773"><defs><style>.a{fill:#f39224;}</style></defs><g transform="translate(0 0)"><path class="a" d="M49.672,36.447a19.619,19.619,0,0,0-15.256-17.2v-2.47a3.3,3.3,0,0,0-.8-6.512h-7a3.3,3.3,0,0,0-.8,6.512v2.477a19.518,19.518,0,0,0-9.572,5.265,19.729,19.729,0,0,0-1.65,1.873c-.024,0-.049,0-.074,0H7.6a.972.972,0,0,0,0,1.944h5.678a19.486,19.486,0,0,0-1.725,3.736H.972a.972.972,0,1,0,0,1.944H11a19.764,19.764,0,0,0-.482,3.736h-4.3a.972.972,0,0,0,0,1.944h4.329a19.735,19.735,0,0,0,.607,3.736H4.86a.972.972,0,0,0,0,1.944h6.918A19.633,19.633,0,0,0,28.192,57.94q.963.1,1.926.095a19.682,19.682,0,0,0,10.716-3.167.972.972,0,1,0-1.061-1.629,17.691,17.691,0,1,1,5.211-5.217.972.972,0,1,0,1.63,1.059A19.7,19.7,0,0,0,49.672,36.447ZM25.258,13.567a1.362,1.362,0,0,1,1.361-1.361h7a1.361,1.361,0,0,1,0,2.722h-7A1.362,1.362,0,0,1,25.258,13.567Zm2.507,5.349V16.872h4.706v2.041A19.806,19.806,0,0,0,27.766,18.916Z" transform="translate(0 -10.262)"/><path class="a" d="M436.742,425.5a.972.972,0,1,0,.687.285A.977.977,0,0,0,436.742,425.5Z" transform="translate(-393.411 -385.137)"/><path class="a" d="M169.951,144.609a15.079,15.079,0,1,0,15.079,15.079A15.1,15.1,0,0,0,169.951,144.609Zm0,28.214a13.135,13.135,0,1,1,13.135-13.135A13.15,13.15,0,0,1,169.951,172.823Z" transform="translate(-139.818 -131.55)"/><path class="a" d="M268.333,219.7l-4.815,4.814a3.013,3.013,0,0,0-2.668,0l-2.155-2.155a.972.972,0,0,0-1.375,1.375l2.155,2.155a3.021,3.021,0,1,0,5.418,0l4.673-4.673h0l.141-.141a.972.972,0,1,0-1.375-1.375Zm-6.149,8.6a1.076,1.076,0,1,1,1.076-1.076A1.078,1.078,0,0,1,262.185,228.3Z" transform="translate(-232.051 -199.081)"/><path class="a" d="M399.528,289.86h-.9a.972.972,0,1,0,0,1.944h.9a.972.972,0,0,0,0-1.944Z" transform="translate(-359.001 -262.682)"/><path class="a" d="M194.955,289.616h-.9a.972.972,0,1,0,0,1.944h.9a.972.972,0,0,0,0-1.944Z" transform="translate(-174.314 -262.462)"/><path class="a" d="M301.1,185.664a.972.972,0,0,0,.972-.972v-.9a.972.972,0,0,0-1.944,0v.9A.972.972,0,0,0,301.1,185.664Z" transform="translate(-270.95 -166.046)"/><path class="a" d="M300.851,387.393a.972.972,0,0,0-.972.972v.9a.972.972,0,1,0,1.944,0v-.9A.972.972,0,0,0,300.851,387.393Z" transform="translate(-270.729 -350.734)"/><path class="a" d="M.972,351.44a.972.972,0,1,0,.687,1.659.972.972,0,0,0-.687-1.659Z" transform="translate(0 -318.276)"/></g></svg>