<svg xmlns="http://www.w3.org/2000/svg" width="28.962" height="52.137" viewBox="0 0 28.962 52.137"><defs><style>.a{fill:#f39224;}</style></defs><path class="a" d="M533.167,716.452l-4-2.907-1.529-4.706h-4.946l-4-2.906-4,2.906h-4.949l-1.526,4.706-4,2.907,1.529,4.705-1.529,4.706,4,2.906.908,2.792V756.7a1.366,1.366,0,0,0,2.125,1.137l7.445-4.963,7.445,4.963a1.36,1.36,0,0,0,.757.23,1.384,1.384,0,0,0,.645-.161,1.363,1.363,0,0,0,.722-1.206V731.561l.908-2.792,4-2.906-1.529-4.706ZM519.446,750.1a1.368,1.368,0,0,0-1.517,0l-6.078,4.052V733.475h2.833l4,2.907,4-2.907h2.833v20.674l-6.078-4.052Zm10.508-25.278-3.115,2.261-1.184,3.648h-.131v.011H521.8L518.689,733l-3.114-2.261h-3.847l-1.192-3.661-3.112-2.261,1.189-3.661-1.189-3.661,3.112-2.261,1.192-3.661h3.847l3.114-2.261,3.114,2.261h3.847l1.189,3.661,3.115,2.261-1.192,3.661,1.192,3.661Z" transform="translate(-504.205 -705.933)"/><path class="a" d="M512.1,722.672a1.368,1.368,0,0,1-1.367-1.367v-9.57h-1.367a1.367,1.367,0,1,1,0-2.734H512.1a1.368,1.368,0,0,1,1.367,1.367v10.937A1.368,1.368,0,0,1,512.1,722.672Z" transform="translate(-497.62 -700.612)"/></svg>