<svg xmlns="http://www.w3.org/2000/svg" width="47.374" height="34.339" viewBox="0 0 47.374 34.339"><defs><style>.a{fill:#f39224;}</style></defs><g transform="translate(0 -70.297)"><path class="a" d="M38.427,185.576l-3.8,3.8c-.05-.06-.1-.119-.159-.175l-4.912-4.912a.7.7,0,1,0-.983.983l4.912,4.912a1.083,1.083,0,1,1-1.532,1.532l-2.73-2.73a.7.7,0,0,0-.983.983l2.73,2.73h0a1.083,1.083,0,0,1-1.532,1.531l-2.73-2.73a.7.7,0,0,0-.983.983l2.73,2.73a1.083,1.083,0,0,1-1.532,1.532l-2.73-2.73a.7.7,0,1,0-.983.983l2.73,2.73a1.083,1.083,0,1,1-1.531,1.532L22.637,197.5a2.448,2.448,0,0,0-.367-2.986l-.042-.042a2.44,2.44,0,0,0-1.973-.7,2.441,2.441,0,0,0-1.851-2.2,2.446,2.446,0,0,0-3.338-3.084,2.442,2.442,0,0,0-4.079-1.062l-.287.287-.209-.209a1.768,1.768,0,0,1-.521-1.259V184.42a.7.7,0,0,0-.2-.492L6.8,180.96l.835-.835a.7.7,0,0,0-.983-.983L5.531,180.26a.541.541,0,0,1-.765,0l-3.578-3.578a.7.7,0,0,0-.983.983l3.578,3.578a1.92,1.92,0,0,0,1.836.5l2.96,2.96v1.526a3.15,3.15,0,0,0,.929,2.242l.209.209-.233.233a2.443,2.443,0,0,0,1.728,4.171h.03c0,.01,0,.02,0,.031a2.444,2.444,0,0,0,2.444,2.444h.031a2.439,2.439,0,0,0,2.442,2.473h.031a2.437,2.437,0,0,0,.714,1.759l.042.042a2.444,2.444,0,0,0,3.456,0l1.3-1.3,1.717,1.717a2.472,2.472,0,0,0,4.221-1.791h.043a2.471,2.471,0,0,0,2.472-2.517H30.2a2.472,2.472,0,0,0,2.474-2.472c0-.015,0-.029,0-.043h.042a2.469,2.469,0,0,0,2.466-2.638l4.228-4.229a.7.7,0,0,0-.984-.983Zm-27.96,5.814a1.053,1.053,0,0,1,0-1.49l1.5-1.5a1.053,1.053,0,1,1,1.49,1.49l-1.5,1.5a1.055,1.055,0,0,1-1.49,0Zm3.218,2.782a1.053,1.053,0,0,1-.745-1.8l1.5-1.5.934-.934a1.053,1.053,0,0,1,1.49,1.49l-2.437,2.437a1.047,1.047,0,0,1-.745.308Zm1.728,2.164a1.055,1.055,0,0,1,0-1.49l1.659-1.659a1.053,1.053,0,0,1,1.49,1.489L16.9,196.337A1.054,1.054,0,0,1,15.413,196.337Zm4,2.515a1.053,1.053,0,0,1-1.49,0l-.042-.042a1.054,1.054,0,0,1,0-1.49l1.659-1.659v0l.208-.208a1.055,1.055,0,0,1,1.49,0l.042.042a1.054,1.054,0,0,1,0,1.49Z" transform="translate(0 -96.337)"/><path class="a" d="M130.744,83.275a.7.7,0,0,0-.983,0l-2.606,2.606a.1.1,0,0,1-.132,0l-9.212-8.8a.094.094,0,0,1,0-.135l5.464-5.464a.7.7,0,0,0-.983-.983l-5.464,5.464a1.482,1.482,0,0,0-.129,1.95l-2.5,2.452-2.356-1.314a2.076,2.076,0,0,0-1.01-.263h-6.694l-.509-.509a4.687,4.687,0,0,0-1.656-1.073l-1.853-.706-.856-.856a1.933,1.933,0,0,0-.29-2.355l-2.79-2.79a.7.7,0,0,0-.983.983l2.79,2.79a.542.542,0,0,1,0,.765L92.318,80.71a.7.7,0,0,0,.984.983l5.021-5.021.919.919a.7.7,0,0,0,.244.158l1.992.759a3.3,3.3,0,0,1,1.142.732c-.042.036-.084.072-.123.112L99.851,82a2.778,2.778,0,0,0,3.729,4.111l2-1.645h2.085l2.382,2.382a.7.7,0,0,0,.984-.983l-1.721-1.721a.695.695,0,0,0-.586-1.069h-3.392a.7.7,0,0,0-.442.158l-2.194,1.8a1.388,1.388,0,0,1-1.863-2.053l2.645-2.645a.52.52,0,0,1,.371-.154h6.982a.683.683,0,0,1,.332.086l2.606,1.453a1.014,1.014,0,0,0,1.2-.16l2.724-2.671,7.5,7.163L124.1,87.145a.7.7,0,0,0,.984.983L126.2,87a1.492,1.492,0,0,0,1.935-.14l2.606-2.606A.7.7,0,0,0,130.744,83.275Z" transform="translate(-83.574)"/></g></svg>