<svg xmlns="http://www.w3.org/2000/svg" width="68.918" height="42.201" viewBox="0 0 68.918 42.201"><defs><style>.a{fill:#fff;stroke:#fff;}</style></defs><g transform="translate(0.5 0.5)"><path class="a" d="M63.144,100.486h-47a1,1,0,0,0,0,1.994h47a2.783,2.783,0,0,1,2.78,2.78v21.228a2.783,2.783,0,0,1-2.78,2.78H60.757v-6.5a1,1,0,0,0-1-1H8.158a1,1,0,0,0-1,1v6.5H4.774a2.783,2.783,0,0,1-2.78-2.78V105.26a2.783,2.783,0,0,1,2.78-2.78h7.387a1,1,0,1,0,0-1.994H4.774A4.779,4.779,0,0,0,0,105.26v21.228a4.779,4.779,0,0,0,4.774,4.774H15.152a1,1,0,1,0,0-1.994h-6v-1.753H48.778a1,1,0,0,0,0-1.994H9.155v-1.753H58.763v1.753h-6a1,1,0,1,0,0,1.994h6v1.753H19.14a1,1,0,1,0,0,1.994h44a4.779,4.779,0,0,0,4.774-4.774V105.26A4.779,4.779,0,0,0,63.144,100.486Z" transform="translate(0 -100.486)"/><path class="a" d="M423.806,148.461a1,1,0,1,0,0-1.994h-2.949a1,1,0,0,0,0,1.994Z" transform="translate(-364.046 -140.355)"/><path class="a" d="M263.551,148.461a1,1,0,1,0,0-1.994H244.68a1,1,0,1,0,0,1.994Z" transform="translate(-211.289 -140.355)"/><path class="a" d="M113.594,352.064a1,1,0,0,0-1,1,6.585,6.585,0,0,1-2.8,4.951,1,1,0,1,0,1.155,1.625,8.575,8.575,0,0,0,3.637-6.577A1,1,0,0,0,113.594,352.064Z" transform="translate(-94.839 -318.621)"/><path class="a" d="M188.28,352.064a1,1,0,0,0-1,1v5.764a1,1,0,1,0,1.994,0v-5.764A1,1,0,0,0,188.28,352.064Z" transform="translate(-162.387 -318.621)"/><path class="a" d="M251.061,352.064a1,1,0,0,0-1,1v5.764a1,1,0,1,0,1.994,0v-5.764A1,1,0,0,0,251.061,352.064Z" transform="translate(-216.822 -318.621)"/><path class="a" d="M367.12,358.012a6.561,6.561,0,0,1-2.8-4.956,1,1,0,0,0-1.994,0,8.576,8.576,0,0,0,3.637,6.577,1,1,0,1,0,1.155-1.625Z" transform="translate(-314.162 -318.621)"/><path class="a" d="M309.623,352.064a1,1,0,0,0-1,1v5.764a1,1,0,0,0,1.994,0v-5.764A1,1,0,0,0,309.623,352.064Z" transform="translate(-267.599 -318.621)"/></g></svg>