<svg xmlns="http://www.w3.org/2000/svg" width="55.403" height="42.201" viewBox="0 0 55.403 42.201"><defs><style>.a{fill:#fff;}</style></defs><g transform="translate(0 0)"><path class="a" d="M52.157,93.742V88.593A24,24,0,0,0,47.173,73.9a24.813,24.813,0,0,0-11.362-8.272A4.875,4.875,0,0,0,30.948,61H24.455a4.875,4.875,0,0,0-4.863,4.632A24.813,24.813,0,0,0,8.23,73.9a24,24,0,0,0-4.983,14.69v5.149a4.869,4.869,0,0,0,1.623,9.46H50.534a4.869,4.869,0,0,0,1.623-9.46ZM6.493,88.593a21.126,21.126,0,0,1,6.6-15.242v5.5a1.623,1.623,0,1,0,3.246,0V70.806a21.116,21.116,0,0,1,3.246-1.7V82.1a1.623,1.623,0,1,0,3.246,0V66.836s0-.009,0-.013v-.953a1.625,1.625,0,0,1,1.623-1.623h6.493a1.625,1.625,0,0,1,1.623,1.623v.953s0,.009,0,.014V82.1a1.623,1.623,0,1,0,3.246,0V69.109a21.134,21.134,0,0,1,3.246,1.7v8.049a1.623,1.623,0,1,0,3.246,0v-5.5a21.126,21.126,0,0,1,6.6,15.242v4.869H6.493ZM50.534,99.955H4.869a1.623,1.623,0,1,1,0-3.246H50.534a1.623,1.623,0,1,1,0,3.246Z" transform="translate(0 -61)"/></g></svg>