<svg xmlns="http://www.w3.org/2000/svg" width="111.856" height="70" viewBox="0 0 111.856 70"><defs><style>.a{fill:#fff;}</style></defs><g transform="translate(-202.026 -698.821)"><path class="a" d="M222.37,777.324a5.558,5.558,0,0,0-1.711-1.163,5.017,5.017,0,0,0-2.027-.426,5.912,5.912,0,0,0-2.157.484,5.523,5.523,0,0,0-1.724,1.163,5.482,5.482,0,0,0-1.131,5.939,5.234,5.234,0,0,0,1.165,1.7,5.405,5.405,0,0,0,3.8,1.52,6.084,6.084,0,0,0,2.137-.345,4.2,4.2,0,0,0,1.669-1.175.7.7,0,0,0-.986-.985,4.153,4.153,0,0,1-1.277.839,4.036,4.036,0,0,1-2.952.046,4.1,4.1,0,0,1-1.2-.7,4.021,4.021,0,0,1-.883-1.063,3.71,3.71,0,0,1-.47-1.331h8.681a.735.735,0,0,0,.47-.181.62.62,0,0,0,.222-.513,4.933,4.933,0,0,0-.448-2.092,5.851,5.851,0,0,0-1.184-1.711m-7.72,3.11a4.183,4.183,0,0,1,.481-1.3A3.763,3.763,0,0,1,216,778.1a4.229,4.229,0,0,1,1.184-.694,3.937,3.937,0,0,1,2.8,0,4.257,4.257,0,0,1,1.187.694,4.027,4.027,0,0,1,.885,1.039,4.107,4.107,0,0,1,.49,1.3Z" transform="translate(-2.512 -17.764)"/><path class="a" d="M279.935,777.324a5.509,5.509,0,0,0-1.711-1.163,5,5,0,0,0-2.025-.426,5.921,5.921,0,0,0-2.159.484,5.524,5.524,0,0,0-1.722,1.163,5.481,5.481,0,0,0-1.131,5.939,5.206,5.206,0,0,0,1.163,1.7,5.406,5.406,0,0,0,3.8,1.52,6.081,6.081,0,0,0,2.135-.345,4.207,4.207,0,0,0,1.668-1.175.7.7,0,0,0-.984-.985,4.187,4.187,0,0,1-1.276.839,4.04,4.04,0,0,1-2.954.046,4.046,4.046,0,0,1-2.081-1.768,3.8,3.8,0,0,1-.469-1.331h8.681a.742.742,0,0,0,.47-.181.618.618,0,0,0,.224-.513,4.968,4.968,0,0,0-.448-2.092,5.862,5.862,0,0,0-1.187-1.711m-7.718,3.11a4.264,4.264,0,0,1,.481-1.3,3.828,3.828,0,0,1,.874-1.039,4.266,4.266,0,0,1,1.185-.694,3.941,3.941,0,0,1,2.8,0,4.266,4.266,0,0,1,1.185.694,4.02,4.02,0,0,1,1.376,2.338Z" transform="translate(-15.849 -17.764)"/><path class="a" d="M327.3,777.345a5.675,5.675,0,0,0-1.711-1.174,4.933,4.933,0,0,0-2.046-.437,5.428,5.428,0,0,0-2.159.426,5.3,5.3,0,0,0-1.723,1.163,5.388,5.388,0,0,0-1.142,1.733,5.49,5.49,0,0,0-.413,2.115,5.366,5.366,0,0,0,.426,2.148,5.224,5.224,0,0,0,1.162,1.7,5.415,5.415,0,0,0,3.8,1.52,4.459,4.459,0,0,0,2.249-.592,7.022,7.022,0,0,0,1.78-1.42v1.363a.693.693,0,1,0,1.387,0v-4.72a5.164,5.164,0,0,0-.435-2.1,5.649,5.649,0,0,0-1.177-1.723m-.146,5.426a4.037,4.037,0,0,1-2.135,2.1,4,4,0,0,1-3.078-.011,4.047,4.047,0,0,1-2.135-2.137,3.878,3.878,0,0,1-.313-1.555,4.026,4.026,0,0,1,1.174-2.852,4.01,4.01,0,0,1,1.273-.861,3.892,3.892,0,0,1,1.556-.314,4.031,4.031,0,0,1,2.853,1.175,4.04,4.04,0,0,1,.862,1.285,3.981,3.981,0,0,1,.313,1.566,4.474,4.474,0,0,1-.37,1.6" transform="translate(-26.851 -17.764)"/><path class="a" d="M225.018,760.6c.2-.531.308-.8.557-1.4s.49-1.172.724-1.721l1.3-3.169h5.489l2.663,6.286c.114,0,1.254,0,1.533,0l-6.915-17.013L223.544,760.6c.485.006.97,0,1.474,0m5.347-13.445q.723,2.045,1.3,3.517t.849,2.32h-4.39Z" transform="translate(-4.839 -10.37)"/><path class="a" d="M253.052,744.972a7.91,7.91,0,0,0-3.186-.648h-5.1v16.44h5.1a7.885,7.885,0,0,0,3.186-.649,8.291,8.291,0,0,0,4.362-4.365,8.191,8.191,0,0,0,0-6.386,8.527,8.527,0,0,0-1.763-2.62,8.329,8.329,0,0,0-2.6-1.772m3.588,7.584a6.494,6.494,0,0,1-.536,2.645,7.025,7.025,0,0,1-1.463,2.145,6.751,6.751,0,0,1-2.163,1.446,6.669,6.669,0,0,1-2.638.525h-3.652V745.771h3.652a6.583,6.583,0,0,1,2.638.536,6.889,6.889,0,0,1,3.626,3.618,6.513,6.513,0,0,1,.536,2.631" transform="translate(-9.861 -10.538)"/><path class="a" d="M327,758.655a9,9,0,0,0,2.827,1.906,8.723,8.723,0,0,0,3.482.7,8.577,8.577,0,0,0,3.445-.7,9.046,9.046,0,0,0,2.813-1.905,8.944,8.944,0,0,0,0-12.584,9.043,9.043,0,0,0-2.813-1.905,8.577,8.577,0,0,0-3.445-.7,8.737,8.737,0,0,0-3.482.7,8.91,8.91,0,0,0-4.73,4.736,8.883,8.883,0,0,0,0,6.923,9.035,9.035,0,0,0,1.9,2.831m.362-8.791a6.44,6.44,0,0,1,3.428-3.409,6.337,6.337,0,0,1,2.519-.507,6.183,6.183,0,0,1,2.48.506,6.6,6.6,0,0,1,2.038,1.375,6.353,6.353,0,0,1,1.859,4.534,6.334,6.334,0,0,1-.5,2.5,6.411,6.411,0,0,1-1.364,2.032,6.606,6.606,0,0,1-2.038,1.375,6.18,6.18,0,0,1-2.48.506,6.321,6.321,0,0,1-2.519-.507,6.438,6.438,0,0,1-3.428-3.41,6.424,6.424,0,0,1,0-5" transform="translate(-28.267 -10.346)"/><path class="a" d="M203.448,747.561l5.713,7.085,5.662-7.01v12.947h1.422V743.545l-7.1,8.781-7.122-8.805v17.062h1.422Z" transform="translate(0 -10.356)"/><rect class="a" width="1.422" height="16.44" transform="translate(250.889 733.786)"/><path class="a" d="M281.446,752.194a4.717,4.717,0,0,0,.6-1.334,5.561,5.561,0,0,0,.2-1.472,4.791,4.791,0,0,0-.385-1.883,5.455,5.455,0,0,0-1.057-1.622,5.156,5.156,0,0,0-1.581-1.135,4.624,4.624,0,0,0-1.977-.425h-4.7v16.44h1.422V754.5h3.767l4.838,6.262h1.822l-3.143-4.09c-.333-.433-.67-.869-1.011-1.311s-.677-.877-1.011-1.309a4.95,4.95,0,0,0,2.221-1.859m-2.79.574a3.506,3.506,0,0,1-1.415.288h-3.279v-7.284h3.279a3.531,3.531,0,0,1,1.415.286,3.434,3.434,0,0,1,1.139.787,3.739,3.739,0,0,1,.752,1.16,3.629,3.629,0,0,1,.276,1.41,3.724,3.724,0,0,1-.276,1.422A3.56,3.56,0,0,1,279.8,752a3.515,3.515,0,0,1-1.139.773" transform="translate(-16.264 -10.538)"/><path class="a" d="M299.877,746.141h.519v-2.487H289.828v17.479h11.119v-2.487H292.29V752.2h5.463v-2.486H292.29v-3.576Z" transform="translate(-20.247 -10.389)"/><rect class="a" width="111.855" height="1.817" transform="translate(202.026 752.934)"/><path class="a" d="M208.77,780.986a4.882,4.882,0,0,0-1.275-.659,8.67,8.67,0,0,0-1.554-.391q-.358-.07-.75-.16a2.862,2.862,0,0,1-.714-.257,1.741,1.741,0,0,1-.539-.413.861.861,0,0,1-.212-.583,1.251,1.251,0,0,1,.212-.759,1.505,1.505,0,0,1,.526-.459,2.071,2.071,0,0,1,.7-.224,5.363,5.363,0,0,1,.773-.057,3.735,3.735,0,0,1,1.3.213,1.3,1.3,0,0,1,.784.637.706.706,0,0,0,.65.492.626.626,0,0,0,.546-.236.807.807,0,0,0,.167-.48,1.2,1.2,0,0,0-.335-.851,2.834,2.834,0,0,0-.849-.6,4.915,4.915,0,0,0-1.12-.368,5.832,5.832,0,0,0-1.141-.123,5.9,5.9,0,0,0-1.3.146,3.507,3.507,0,0,0-1.165.481,2.459,2.459,0,0,0-1.141,2.192,2.156,2.156,0,0,0,1,1.914,6.224,6.224,0,0,0,2.607.884,4.4,4.4,0,0,1,1.878.671,1.491,1.491,0,0,1,.761,1.252,1.6,1.6,0,0,1-.772,1.421,3.334,3.334,0,0,1-1.867.5,3.158,3.158,0,0,1-1.487-.37,2.067,2.067,0,0,1-1-1.085,1.023,1.023,0,0,0-.3-.391.7.7,0,0,0-.437-.146.629.629,0,0,0-.5.224.771.771,0,0,0-.189.516.681.681,0,0,0,.022.2,3.147,3.147,0,0,0,1.42,1.79,4.655,4.655,0,0,0,2.473.65,5.162,5.162,0,0,0,1.566-.234,4.008,4.008,0,0,0,1.287-.673,3.159,3.159,0,0,0,.861-1.05,2.955,2.955,0,0,0,.314-1.355,2.562,2.562,0,0,0-.325-1.3,3.146,3.146,0,0,0-.874-.961" transform="translate(0 -17.758)"/><path class="a" d="M234.576,775.678a4.838,4.838,0,0,0-2.192.5,5.856,5.856,0,0,0-1.722,1.287v-1.1a.694.694,0,1,0-1.388,0v9.486a.694.694,0,1,0,1.388,0v-4.946a3.635,3.635,0,0,1,.346-1.455,4.377,4.377,0,0,1,.85-1.229,3.941,3.941,0,0,1,1.218-.85,3.6,3.6,0,0,1,1.5-.313.788.788,0,0,0,.57-.2.676.676,0,0,0,0-.985.8.8,0,0,0-.57-.2" transform="translate(-6.276 -17.752)"/><path class="a" d="M246.472,775.706a.7.7,0,0,0-.381.113.574.574,0,0,0-.246.289l-3.021,7.942-2.908-7.942a.58.58,0,0,0-.246-.289.783.783,0,0,0-.425-.113.609.609,0,0,0-.483.191.707.707,0,0,0-.167.481.683.683,0,0,0,.07.313c0,.015.057.186.178.513s.312.854.581,1.579.619,1.677,1.053,2.864.96,2.636,1.587,4.351a1.111,1.111,0,0,0,.257.367.683.683,0,0,0,.5.191.674.674,0,0,0,.481-.157,1,1,0,0,0,.257-.4q1.075-2.775,1.756-4.575t1.074-2.853q.389-1.051.537-1.466c.1-.274.153-.428.167-.459a.6.6,0,0,0,.067-.267.674.674,0,0,0-.191-.459.64.64,0,0,0-.5-.213" transform="translate(-8.428 -17.758)"/><path class="a" d="M252.5,773.175a.822.822,0,1,0,.583,1.4.824.824,0,0,0,0-1.163.8.8,0,0,0-.583-.24" transform="translate(-11.427 -17.189)"/><path class="a" d="M252.562,777.134a.605.605,0,0,0-.441.18.6.6,0,0,0-.18.443v8.5a.594.594,0,0,0,.18.441.624.624,0,0,0,1.065-.441v-8.5a.618.618,0,0,0-.624-.622" transform="translate(-11.485 -18.079)"/><path class="a" d="M265.034,783.864a.669.669,0,0,0-.491.2,4.161,4.161,0,0,1-1.277.839,4.065,4.065,0,0,1-3.1-.011,4.053,4.053,0,0,1-2.136-2.135,3.9,3.9,0,0,1-.312-1.556,4.021,4.021,0,0,1,1.174-2.853,4.076,4.076,0,0,1,1.274-.86,4.055,4.055,0,0,1,3.1-.011,4.672,4.672,0,0,1,1.277.794.666.666,0,0,0,.491.2.655.655,0,0,0,.448-.178.545.545,0,0,0,.2-.424,1.013,1.013,0,0,0-.28-.527,3.632,3.632,0,0,0-.794-.694,5.946,5.946,0,0,0-1.232-.615,4.576,4.576,0,0,0-1.609-.267,5.876,5.876,0,0,0-2.159.481,5.593,5.593,0,0,0-1.722,1.164,5.472,5.472,0,0,0-1.129,5.939,5.209,5.209,0,0,0,1.161,1.7,5.566,5.566,0,0,0,6.781.694,2.987,2.987,0,0,0,.771-.683,1.053,1.053,0,0,0,.257-.524.618.618,0,0,0-.213-.483.706.706,0,0,0-.481-.189" transform="translate(-12.517 -17.771)"/><path class="a" d="M293.758,780.986a4.877,4.877,0,0,0-1.274-.659,8.679,8.679,0,0,0-1.555-.391c-.239-.047-.488-.1-.75-.16a2.891,2.891,0,0,1-.715-.257,1.756,1.756,0,0,1-.538-.413.861.861,0,0,1-.212-.583,1.251,1.251,0,0,1,.212-.759,1.519,1.519,0,0,1,.526-.459,2.076,2.076,0,0,1,.7-.224,5.344,5.344,0,0,1,.772-.057,3.739,3.739,0,0,1,1.3.213,1.3,1.3,0,0,1,.784.637.705.705,0,0,0,.649.492.626.626,0,0,0,.546-.236.807.807,0,0,0,.167-.48,1.2,1.2,0,0,0-.335-.851,2.824,2.824,0,0,0-.849-.6,4.915,4.915,0,0,0-1.12-.368,5.826,5.826,0,0,0-1.141-.123,5.9,5.9,0,0,0-1.3.146,3.513,3.513,0,0,0-1.165.481,2.46,2.46,0,0,0-1.14,2.192,2.155,2.155,0,0,0,.994,1.914,6.228,6.228,0,0,0,2.607.884,4.4,4.4,0,0,1,1.878.671,1.491,1.491,0,0,1,.761,1.252,1.6,1.6,0,0,1-.771,1.421,3.337,3.337,0,0,1-1.868.5,3.158,3.158,0,0,1-1.487-.37,2.067,2.067,0,0,1-1-1.085,1.021,1.021,0,0,0-.3-.391.7.7,0,0,0-.437-.146.63.63,0,0,0-.5.224.77.77,0,0,0-.188.516.715.715,0,0,0,.021.2,3.149,3.149,0,0,0,1.421,1.79,4.654,4.654,0,0,0,2.473.65,5.155,5.155,0,0,0,1.566-.234,4.008,4.008,0,0,0,1.287-.673,3.171,3.171,0,0,0,.862-1.05,2.964,2.964,0,0,0,.313-1.355,2.561,2.561,0,0,0-.324-1.3,3.139,3.139,0,0,0-.874-.961" transform="translate(-19.584 -17.758)"/><path class="a" d="M310.788,780.986a4.889,4.889,0,0,0-1.274-.659,8.705,8.705,0,0,0-1.556-.391c-.239-.047-.488-.1-.75-.16a2.88,2.88,0,0,1-.716-.257,1.767,1.767,0,0,1-.536-.413.863.863,0,0,1-.213-.583,1.251,1.251,0,0,1,.213-.759,1.533,1.533,0,0,1,.524-.459,2.083,2.083,0,0,1,.707-.224,5.318,5.318,0,0,1,.771-.057,3.721,3.721,0,0,1,1.3.213,1.29,1.29,0,0,1,.784.637.709.709,0,0,0,.65.492.626.626,0,0,0,.547-.236.8.8,0,0,0,.168-.48,1.213,1.213,0,0,0-.334-.851,2.887,2.887,0,0,0-.851-.6,4.9,4.9,0,0,0-1.119-.368,5.845,5.845,0,0,0-1.141-.123,5.915,5.915,0,0,0-1.3.146,3.5,3.5,0,0,0-1.163.481,2.46,2.46,0,0,0-1.14,2.192,2.157,2.157,0,0,0,.994,1.914,6.213,6.213,0,0,0,2.607.884,4.4,4.4,0,0,1,1.879.671,1.5,1.5,0,0,1,.762,1.252,1.6,1.6,0,0,1-.772,1.421,3.343,3.343,0,0,1-1.869.5,3.164,3.164,0,0,1-1.489-.37,2.066,2.066,0,0,1-.994-1.085,1.037,1.037,0,0,0-.3-.391.7.7,0,0,0-.437-.146.629.629,0,0,0-.5.224.775.775,0,0,0-.188.516.656.656,0,0,0,.022.2,3.128,3.128,0,0,0,1.42,1.79,4.648,4.648,0,0,0,2.472.65,5.167,5.167,0,0,0,1.566-.234,3.975,3.975,0,0,0,1.285-.673,3.2,3.2,0,0,0,.863-1.05,2.974,2.974,0,0,0,.313-1.355,2.562,2.562,0,0,0-.325-1.3,3.176,3.176,0,0,0-.874-.961" transform="translate(-23.508 -17.758)"/><path class="a" d="M316.129,787.339a.876.876,0,0,0-.648.27.916.916,0,1,0,.648-.27" transform="translate(-26.046 -20.374)"/><path class="a" d="M333.968,787.339a.918.918,0,1,0,.65,1.566.918.918,0,0,0-.65-1.566" transform="translate(-30.213 -20.374)"/><path class="a" d="M342.711,780.986a4.877,4.877,0,0,0-1.274-.659,8.67,8.67,0,0,0-1.554-.391c-.24-.047-.489-.1-.75-.16a2.846,2.846,0,0,1-.715-.257,1.75,1.75,0,0,1-.539-.413.861.861,0,0,1-.211-.583,1.25,1.25,0,0,1,.211-.759,1.519,1.519,0,0,1,.526-.459,2.075,2.075,0,0,1,.7-.224,5.355,5.355,0,0,1,.773-.057,3.738,3.738,0,0,1,1.3.213,1.294,1.294,0,0,1,.784.637.707.707,0,0,0,.65.492.625.625,0,0,0,.546-.236.8.8,0,0,0,.167-.48,1.2,1.2,0,0,0-.334-.851,2.844,2.844,0,0,0-.849-.6,4.922,4.922,0,0,0-1.121-.368,5.825,5.825,0,0,0-1.14-.123,5.909,5.909,0,0,0-1.3.146,3.513,3.513,0,0,0-1.165.481,2.46,2.46,0,0,0-1.14,2.192,2.157,2.157,0,0,0,.994,1.914,6.228,6.228,0,0,0,2.608.884,4.4,4.4,0,0,1,1.877.671,1.49,1.49,0,0,1,.762,1.252,1.6,1.6,0,0,1-.772,1.421,3.334,3.334,0,0,1-1.867.5,3.154,3.154,0,0,1-1.487-.37,2.071,2.071,0,0,1-1-1.085,1.014,1.014,0,0,0-.3-.391.7.7,0,0,0-.437-.146.627.627,0,0,0-.5.224.771.771,0,0,0-.189.516.681.681,0,0,0,.022.2,3.147,3.147,0,0,0,1.42,1.79,4.655,4.655,0,0,0,2.473.65,5.153,5.153,0,0,0,1.565-.234,4,4,0,0,0,1.287-.673,3.162,3.162,0,0,0,.862-1.05,2.974,2.974,0,0,0,.313-1.355,2.561,2.561,0,0,0-.324-1.3,3.139,3.139,0,0,0-.874-.961" transform="translate(-30.869 -17.758)"/><path class="a" d="M319.449,758.139l-.925-1.172-.333-.423-.409.347a8.473,8.473,0,0,1-2.221,1.376,6.016,6.016,0,0,1-2.309.471,6.232,6.232,0,0,1-2.5-.5,6.457,6.457,0,0,1-2.033-1.384,6.713,6.713,0,0,1-1.377-2.045,6.135,6.135,0,0,1-.506-2.47,6.372,6.372,0,0,1,.507-2.522,6.394,6.394,0,0,1,3.41-3.426,6.221,6.221,0,0,1,2.5-.5,6.794,6.794,0,0,1,3.944,1.3l.319.222.3-.243,1.122-.9.536-.429-.558-.4a11.987,11.987,0,0,0-2.792-1.511,8.265,8.265,0,0,0-2.875-.531,8.67,8.67,0,0,0-3.474.7c-.067.028-.128.064-.194.095l-.057.029a8.9,8.9,0,0,0-2.569,1.8,9.059,9.059,0,0,0-1.892,2.831,9.009,9.009,0,0,0,0,6.919,8.9,8.9,0,0,0,1.894,2.821,9.222,9.222,0,0,0,2.816,1.916,8.755,8.755,0,0,0,6.715.095,11.071,11.071,0,0,0,2.88-1.74l.391-.323Z" transform="translate(-23.627 -10.332)"/><path class="a" d="M233.114,732.167v-6.881a.577.577,0,0,1,.572-.579h10v7.46h.835v-7.46h3.461a.577.577,0,0,1,.572.579v6.881h.835v-6.881a1.417,1.417,0,0,0-1.408-1.423H244.52v-23.62a.576.576,0,0,1,.572-.578h15.129a.575.575,0,0,1,.572.578v8h-2.208a1.417,1.417,0,0,0-1.408,1.422v22.2a1.391,1.391,0,0,0,.034.3h.887a.582.582,0,0,1-.086-.3v-22.2a.577.577,0,0,1,.573-.579h2.208v22.776a.576.576,0,0,1-.086.3h.888a1.493,1.493,0,0,0,.033-.3V709.091h7.18a.576.576,0,0,1,.572.579v3.924h-2.749a1.417,1.417,0,0,0-1.407,1.423V730.46a1.417,1.417,0,0,0,1.407,1.423h2.177a1.415,1.415,0,0,0,1.406-1.423V714.438h10.731a.576.576,0,0,1,.572.579v8.636h-2.487a1.417,1.417,0,0,0-1.407,1.423v7.091h.834v-7.091a.577.577,0,0,1,.573-.579h2.487v7.67h.835V724.5h4.868v7.67h.835V724.5h2.07a.576.576,0,0,1,.572.579v7.091h.835v-7.091a1.417,1.417,0,0,0-1.408-1.423h-2.07V706.576a.577.577,0,0,1,.572-.58h7.2a.578.578,0,0,1,.573.58v25.592h.835V706.576a1.417,1.417,0,0,0-1.408-1.423h-7.2a1.417,1.417,0,0,0-1.407,1.423v17.077h-4.868v-8.636a1.417,1.417,0,0,0-1.407-1.423H270.215V709.67a1.415,1.415,0,0,0-1.406-1.422h-7.18v-8a1.417,1.417,0,0,0-1.407-1.423H245.092a1.416,1.416,0,0,0-1.407,1.423v23.62h-10a1.417,1.417,0,0,0-1.408,1.423v6.881Zm36.267-1.708a.576.576,0,0,1-.572.579h-2.177a.576.576,0,0,1-.572-.579V715.017a.576.576,0,0,1,.572-.579h2.749Z" transform="translate(-6.804)"/></g></svg>