<svg xmlns="http://www.w3.org/2000/svg" width="50.333" height="50.333" viewBox="0 0 50.333 50.333"><defs><style>.a{fill:#fff;}</style></defs><g transform="translate(0)"><g transform="translate(5.57 5.627)"><path class="a" d="M65.717,60.064l-2.4-2.4a1.474,1.474,0,0,0-1.424-.382l-3.272.877a1.474,1.474,0,0,0-1.043,1.043l-.877,3.272a1.475,1.475,0,0,0,.382,1.424l2.395,2.4a1.474,1.474,0,0,0,1.424.382L64.18,65.8a1.474,1.474,0,0,0,1.043-1.043l.877-3.272A1.475,1.475,0,0,0,65.717,60.064Zm-3.123,3.11-1.627.436-1.191-1.191.436-1.627,1.627-.436,1.191,1.191Z" transform="translate(-56.657 -57.237)"/></g><g transform="translate(35.407 35.465)"><path class="a" d="M369.231,363.579l-2.4-2.4a1.475,1.475,0,0,0-1.424-.382l-3.272.877a1.474,1.474,0,0,0-1.043,1.043l-.877,3.272a1.475,1.475,0,0,0,.382,1.424l2.4,2.4a1.474,1.474,0,0,0,1.424.382l3.272-.877a1.475,1.475,0,0,0,1.043-1.043l.877-3.272A1.475,1.475,0,0,0,369.231,363.579Zm-3.123,3.11-1.627.436-1.191-1.191.436-1.627,1.627-.436,1.191,1.191Z" transform="translate(-360.171 -360.752)"/></g><g transform="translate(0 0)"><g transform="translate(0 0)"><path class="a" d="M40.011,29.689a9.25,9.25,0,0,0-1.8.182l-4.7-4.7,4.683-4.683A10.325,10.325,0,0,0,49.327,5.872a1.475,1.475,0,0,0-2.373-.407L43.139,9.28a1.475,1.475,0,0,1-2.085-2.085l3.815-3.815a1.475,1.475,0,0,0-.407-2.373A10.325,10.325,0,0,0,29.849,12.142l-4.683,4.683-4.683-4.683a10.322,10.322,0,1,0-8.342,8.342l4.683,4.683L12.141,29.85A10.325,10.325,0,0,0,1,44.462a1.475,1.475,0,0,0,2.373.407l3.815-3.815A1.475,1.475,0,1,1,9.279,43.14L5.464,46.955a1.475,1.475,0,0,0,.407,2.373A10.325,10.325,0,0,0,20.483,38.192l4.683-4.683,4.7,4.7a9.257,9.257,0,0,0-.182,1.8A10.322,10.322,0,1,0,40.011,29.689ZM13.655,17.827a1.475,1.475,0,0,0-1.423-.382,7.373,7.373,0,1,1,5.212-5.212,1.475,1.475,0,0,0,.382,1.423l5.254,5.254L18.91,23.082ZM24.124,30.381h0l-6.3,6.3a1.475,1.475,0,0,0-.382,1.423,7.376,7.376,0,0,1-8.166,9.211l2.086-2.086a4.424,4.424,0,0,0-6.256-6.256L3.021,41.056a7.376,7.376,0,0,1,9.211-8.166,1.474,1.474,0,0,0,1.423-.382l6.3-6.3h0l6.256-6.256h0l6.3-6.3a1.475,1.475,0,0,0,.382-1.423,7.376,7.376,0,0,1,8.166-9.211L38.968,5.109a4.424,4.424,0,0,0,6.256,6.256l2.086-2.086A7.376,7.376,0,0,1,38.1,17.445a1.475,1.475,0,0,0-1.423.382l-6.3,6.3h0Zm15.887,17a7.382,7.382,0,0,1-7.373-7.373,7.254,7.254,0,0,1,.279-1.884,1.474,1.474,0,0,0-.383-1.421l-5.283-5.283,4.171-4.171,5.283,5.283a1.474,1.474,0,0,0,1.421.383,7.259,7.259,0,0,1,1.884-.279,7.373,7.373,0,0,1,0,14.746Z" transform="translate(0 -0.001)"/></g></g></g></svg>